<svg width="161" height="115" viewBox="0 0 161 115" fill="none" xmlns="http://www.w3.org/2000/svg">
<path d="M29.568 108H16.128C13.2267 108 11.3067 107.531 10.368 106.592C9.51467 105.653 9.088 103.691 9.088 100.704V22.752C9.088 19.7653 9.51467 17.8027 10.368 16.864C11.3067 15.9253 13.2267 15.456 16.128 15.456H29.568V108ZM69.12 90.08V100.96C69.12 103.861 68.6507 105.781 67.712 106.72C66.7733 107.573 64.8107 108 61.824 108H34.688V90.08H69.12ZM61.44 52.32V60C61.44 63.072 61.1413 65.0347 60.544 65.888C59.9467 66.656 58.24 67.04 55.424 67.04H34.688V52.32H61.44ZM67.84 15.456V26.336C67.84 29.2373 67.3707 31.1573 66.432 32.096C65.4933 32.9493 63.5307 33.376 60.544 33.376H34.688V15.456H67.84Z" fill="#7591BC"/>
<path d="M81.2 15.456H121.264C122.629 15.456 123.739 15.9253 124.592 16.864C125.445 17.8027 125.872 19.04 125.872 20.576V108H112.432C109.531 108 107.611 107.531 106.672 106.592C105.819 105.653 105.392 103.691 105.392 100.704V31.456H84.912C82.4373 31.456 81.2 29.408 81.2 25.312V15.456ZM130.992 15.456H151.472C153.947 15.456 155.184 17.504 155.184 21.6V31.456H130.992V15.456Z" fill="#7591BC"/>
</svg>
